<?xml version="1.0" standalone="no"?>
<!DOCTYPE svg PUBLIC "-//W3C//DTD SVG 20010904//EN"
 "http://www.w3.org/TR/2001/REC-SVG-20010904/DTD/svg10.dtd">
<svg version="1.0" xmlns="http://www.w3.org/2000/svg"
 width="200.000000pt" height="200.000000pt" viewBox="0 0 200.000000 200.000000"
 preserveAspectRatio="xMidYMid meet">

<g transform="translate(0.000000,200.000000) scale(0.100000,-0.100000)"
fill="#000000" stroke="none">
<path d="M909 1968 c-358 -27 -686 -275 -818 -618 -81 -210 -84 -479 -6 -685
76 -203 230 -389 413 -499 90 -54 242 -109 342 -125 83 -14 237 -14 320 0 336
53 633 299 755 624 78 206 75 475 -6 685 -51 132 -113 226 -223 336 -214 214
-468 306 -777 282z m266 -502 c59 -27 107 -72 138 -130 21 -40 22 -50 22 -346
l0 -305 -74 -3 c-53 -2 -77 1 -82 10 -5 7 -9 137 -9 288 0 306 -1 309 -66 336
-49 21 -120 -2 -141 -44 -4 -9 -10 -145 -13 -302 l-5 -285 -74 -3 c-53 -2 -77
1 -82 10 -5 7 -9 94 -9 193 0 160 -2 184 -19 211 -40 66 -142 66 -182 0 -17
-27 -19 -51 -19 -211 0 -99 -4 -186 -9 -193 -5 -9 -29 -12 -82 -10 l-74 3 -3
194 c-3 229 5 268 75 342 62 67 127 92 217 87 39 -3 79 -8 88 -12 13 -6 20 0
32 27 57 138 235 207 371 143z m481 -362 c41 -20 64 -59 64 -110 0 -28 -8 -44
-34 -70 -29 -29 -41 -34 -79 -34 -56 0 -92 27 -108 80 -15 51 11 107 61 132
43 22 53 22 96 2z"/>
</g>
</svg>
